<?xml version="1.0" encoding="utf-8"?>
<!-- Generator: Adobe Illustrator 17.0.0, SVG Export Plug-In . SVG Version: 6.00 Build 0)  -->
<!DOCTYPE svg PUBLIC "-//W3C//DTD SVG 1.1//EN" "http://www.w3.org/Graphics/SVG/1.1/DTD/svg11.dtd">
<svg version="1.1" id="Layer_1" xmlns="http://www.w3.org/2000/svg" xmlns:xlink="http://www.w3.org/1999/xlink" x="0px" y="0px"
	 width="400px" height="400px" viewBox="0 0 400 400" enable-background="new 0 0 400 400" xml:space="preserve">
<g>
	<path fill="#801D7F" d="M195.094,242.448c0.272-0.548,3.173,0.239,8.4,2.234c2.59,1.027,5.852,2.215,9.484,3.958
		c3.665,1.699,7.858,3.694,12.545,5.966c2.343,1.135,4.787,2.31,7.488,3.78c1.336,0.715,2.7,1.44,4.096,2.186
		c1.398,0.748,2.831,1.486,4.242,2.382c2.832,1.749,5.854,3.505,8.844,5.483c2.931,2.024,6.071,4.066,9.116,6.323
		c12.325,8.949,24.861,19.981,37.954,31.362c-9.923,4.167-20.172,8.473-30.42,12.781c-0.029-2.924-0.427-5.943-1.601-9.647
		c-0.532-1.811-1.333-3.843-2.176-5.95c-0.909-2.155-1.913-4.427-3.049-6.884c-1.136-2.478-2.343-5.051-3.597-7.893
		c-1.26-2.786-2.54-5.92-3.6-8.663c-2.133-5.474-4.302-11.046-6.504-16.703c-1.1-2.832-2.202-5.684-3.317-8.558
		c-0.552-1.438-1.109-2.882-1.667-4.332c-0.519-1.47-1.037-2.946-1.563-4.427c-2.08-5.923-4.188-11.932-6.32-18.009
		c-1.057-3.045-2.152-6.094-3.183-9.185c-0.984-3.098-1.976-6.219-2.974-9.352c-1.979-6.275-3.977-12.614-5.998-19.008
		c-1.365-4.343-2.497-8.64-3.669-12.752l-0.348-1.267l-0.125-0.502c-0.085-0.335-0.164-0.667-0.246-0.993
		c-0.154-0.67-0.302-1.323-0.446-1.954c-0.555-2.586-0.981-5.049-1.033-7.563c-0.072-2.497,0.078-5.05,0.531-7.41
		c0.466-2.327,1.24-4.514,2.651-5.405c3.341-1.805,6.314-5.185,7.167-17.704c0.433-6.22,0.207-14.334-1.221-23.632
		c-0.702-4.666-1.72-9.631-3.186-14.922c-1.467-5.303-3.383-10.89-6.284-17.095c-0.476-0.453-1.063-0.822-1.607-1.209l-0.841-0.553
		l-0.21-0.135c-0.039-0.016-0.072-0.056-0.111-0.056l-0.131,0.089l-0.542,0.356c-1.489,0.95-2.782,1.971-4.072,3.016
		c-2.553,2.1-4.771,4.31-7.016,6.606c-2.231,2.347-4.548,4.778-6.943,7.293c-1.237,1.304-2.544,2.86-3.919,4.568l-1.05,1.349
		c-0.354,0.456-0.656,1.081-0.991,1.62c-0.656,1.132-1.322,2.271-1.988,3.419c-1.372,2.353-2.756,4.74-4.168,7.164
		c-0.722,1.239-1.444,2.487-2.176,3.744c-0.387,0.586-0.689,1.392-1.027,2.128c-0.328,0.751-0.656,1.506-0.991,2.264
		c-1.355,3.094-2.727,6.231-4.118,9.411c-0.705,1.629-1.421,3.269-2.136,4.917c-0.354,0.845-0.748,1.641-1.07,2.542
		c-0.315,0.917-0.63,1.836-0.945,2.758c-1.28,3.764-2.572,7.575-3.885,11.436c-0.666,1.974-1.335,3.959-2.008,5.958
		c-0.335,1.009-0.669,2.023-1.011,3.038c-0.295,1.034-0.59,2.071-0.893,3.109c-1.378,4.901-1.949,6.651-2.789,9.478
		c-0.797,2.655-1.627,5.359-2.336,8.053c-2.999,10.829-5.821,22.155-8.598,33.683c-1.371,5.697-2.776,11.502-4.2,17.415
		c-0.735,3.061-1.477,6.153-2.225,9.267c-0.781,3.416-1.457,6.612-2.126,9.763c-1.332,6.262-2.619,12.322-4.069,18.206
		c-1.438,5.884-3.019,11.616-4.856,16.867c-1.798,5.257-3.948,10.055-6.048,13.421c-1.034,1.684-2.058,2.888-2.73,3.492
		c-0.167,0.17-0.305,0.203-0.423,0.341c-0.118,0.095-0.19,0.053-0.246,0.128c-0.006,0.075-0.088-0.108,0.017,0.036
		c0.275,0.361,0.538,0.741,0.788,1.142l0.046,0.079c-0.394-0.597,0.958,1.44-0.873-1.315l0.007-0.023l0.016-0.033
		c0.013-0.022,0.03-0.046,0.043-0.059c0.033-0.036,0.079-0.059,0.125-0.072c-0.053,0-0.099,0.007-0.138,0.026
		c-0.023,0.013-0.039,0.026-0.059,0.039l-0.026,0.026l-0.01,0.014l-0.003,0.006c-0.866-1.299,1.178,1.785,0.945,1.431
		c-0.411-0.708-1.237-1.752-0.998-1.417c0.023-0.072,0.066-0.118,0.138-0.145c0.082-0.125,0.184-0.243,0.302-0.342
		c0.505-0.58,1.332-1.719,2.192-3.238c1.766-3.029,3.597-7.541,5.152-12.407c1.565-4.923,2.93-10.284,4.145-15.837
		c1.224-5.549,2.3-11.268,3.376-17.191c0.564-3.059,1.123-6.098,1.68-9.109c0.315-1.625,0.637-3.246,0.952-4.86
		c0.331-1.563,0.66-3.111,0.991-4.66c1.201-5.684,2.389-11.281,3.554-16.788c1.217-5.664,2.412-11.232,3.586-16.713
		c1.211-5.526,2.425-10.958,3.768-16.399c0.656-2.702,1.309-5.38,1.956-8.037c0.722-2.678,1.438-5.331,2.146-7.961
		c1.024-3.805,2.038-7.574,3.045-11.308c1.404-4.42,2.792-8.796,4.171-13.134c1.368-4.256,2.72-8.474,4.059-12.65
		c1.513-3.876,3.105-7.521,4.614-11.18c1.51-3.602,3.006-7.167,4.482-10.698c0.689-1.872,1.579-3.139,2.382-4.617
		c0.811-1.429,1.618-2.852,2.422-4.266c1.588-2.788,3.157-5.546,4.709-8.274l1.145-2.015l0.57-0.999
		c0.2-0.292,0.414-0.53,0.621-0.797c0.836-1.08,1.634-2.002,2.428-2.927c1.568-1.732,3.085-3.252,4.525-4.54
		c1.418-1.311,2.815-2.605,4.2-3.885c2.743-2.535,5.392-4.998,8.453-7.62c1.503-1.298,3.17-2.663,4.969-4.059l1.391-1.062
		l0.171-0.133c0.053-0.021,0.099-0.018,0.148-0.028l0.289-0.039l0.574-0.074c0.752-0.083,1.542-0.185,2.234-0.2
		c4.867,9.119,8.011,16.675,10.708,24.163c2.651,7.488,4.929,14.531,6.675,22.48c1.768,7.836,2.973,16.216,3.911,23.873
		c0.46,3.695,0.899,7.254,1.319,10.68c0.4,3.273,0.731,6.311,1.004,9.125c0.276,2.812,0.492,5.399,0.65,7.777
		c0.065,1.162,0.131,2.297,0.196,3.406c0.024,0.537,0.046,1.066,0.066,1.588c0.026,0.533,0.04,1.02,0.03,1.419
		c-0.023,3.405-0.154,6.422-0.397,9.043c-0.509,5.246-1.25,8.84-2.579,10.813c1.995,7.606,4.128,15.366,6.343,23.189
		c2.34,7.783,4.919,15.584,7.446,23.394c1.306,3.889,2.48,7.83,3.908,11.653c1.401,3.836,2.792,7.655,4.177,11.455
		c1.392,3.8,2.776,7.57,4.145,11.309c0.687,1.873,1.375,3.737,2.055,5.592c0.699,1.89,1.438,3.767,2.202,5.631
		c2.895,6.986,5.913,13.401,7.983,19.558c2.117,6.15,3.068,12.011,2.747,17.543c3.682-1.549,7.357-3.095,10.799-4.538
		c-12.788-11.961-24.549-23.276-35.936-32.557c-2.815-2.343-5.696-4.462-8.4-6.596c-2.75-2.08-5.526-3.944-8.125-5.821
		c-2.612-1.867-5.251-3.393-7.698-5.007c-2.478-1.621-4.798-3.01-6.996-4.352c-4.404-2.697-8.322-5.133-11.709-7.292
		c-3.36-2.208-6.34-3.875-8.663-5.404C197.19,244.86,194.821,242.999,195.094,242.448z"/>
	<path opacity="0.8" fill="#ED1C24" d="M67.204,198.916c0.391-0.873,7.177,1.084,19.118,5.371
		c11.971,4.253,29.192,10.648,50.45,19.082c21.208,8.483,46.552,18.922,73.844,32.943c3.377,1.795,6.796,3.616,10.255,5.454
		c1.732,0.925,3.469,1.851,5.218,2.786c1.742,0.915,3.551,2.001,5.342,3.009c1.792,1.03,3.597,2.067,5.405,3.111
		c1.768,1.142,3.544,2.29,5.325,3.441c3.63,2.245,7.01,4.827,10.527,7.325c13.848,10.238,26.587,22.107,39.51,33.684
		c-5.848,2.454-11.817,4.961-17.783,7.469c0.017-1.845,0.014-3.708-0.272-5.625c-0.431-3.436-1.375-6.977-2.691-10.651
		c-1.325-3.682-2.996-7.488-4.752-11.456c-1.745-3.941-3.622-8.171-5.237-12.421c-1.522-4.066-3.031-8.099-4.528-12.102
		c-1.483-3.984-2.953-7.935-4.403-11.852c-1.444-3.919-2.934-7.768-4.19-11.68c-2.603-7.78-5.148-15.394-7.637-22.822
		c-1.214-3.61-2.172-7.099-3.052-10.402c-0.879-3.295-1.653-6.419-2.316-9.353c-1.332-5.862-2.215-10.979-2.586-15.287
		c1.674-1.611,2.941-4.97,3.695-9.907c0.374-2.509,0.679-5.195,0.729-8.874c0.059-3.637-0.086-8.033-0.46-13.296
		c-0.184-2.632-0.43-5.48-0.734-8.557c-0.315-3.234-0.643-6.591-0.981-10.071c-0.738-7.106-1.763-14.819-3.281-22.226
		c-1.52-7.458-3.495-14.381-5.903-21.749c-2.436-7.352-5.401-14.831-9.904-23.676c-0.666-0.077-1.427-0.067-2.152-0.071
		c-0.374,0.035-0.719-0.057-1.126,0.097l-1.349,0.973c-1.766,1.291-3.38,2.548-4.857,3.754c-2.992,2.43-5.611,4.717-8.299,7.038
		c-1.358,1.167-2.733,2.346-4.118,3.539c-1.431,1.219-2.904,2.449-4.463,4.054c-0.384,0.361-0.781,0.819-1.182,1.247
		c-0.4,0.443-0.794,0.847-1.211,1.352c-0.41,0.491-0.83,0.958-1.24,1.474l-1.145,1.9c-1.559,2.581-3.13,5.19-4.722,7.823
		c-1.631,2.701-3.278,5.429-4.945,8.183c-1.513,3.393-3.039,6.819-4.581,10.277c-1.578,3.561-3.17,7.155-4.778,10.782
		c-0.866,1.759-1.503,3.885-2.218,5.933c-0.709,2.077-1.421,4.163-2.136,6.258c-1.454,4.274-2.917,8.587-4.394,12.934l-1.119,3.321
		l-0.975,3.393l-0.984,3.426l-0.492,1.728l-0.295,0.95c-1.575,5.073-3.203,10.271-4.607,15.448
		c1.286-5.628,2.822-11.177,4.273-16.598c0.649-2.459,1.296-4.901,1.936-7.326c0.624-2.42,1.463-4.763,2.172-7.109
		c1.467-4.64,2.914-9.215,4.345-13.725c0.709-2.228,1.411-4.438,2.106-6.635c0.322-1.13,0.742-2.112,1.155-3.088
		c0.407-0.983,0.814-1.961,1.221-2.937c1.608-3.861,3.193-7.665,4.755-11.416c0.774-1.851,1.543-3.688,2.304-5.513
		c0.384-0.896,0.748-1.841,1.145-2.679c0.423-0.744,0.847-1.485,1.27-2.224c1.67-2.922,3.321-5.805,4.945-8.645
		c1.602-2.791,3.177-5.544,4.735-8.258c1.693-2.199,3.331-4.023,4.876-5.543c1.546-1.503,3.039-2.743,4.453-3.946
		c1.398-1.2,2.776-2.381,4.138-3.549c2.708-2.323,5.382-4.62,8.397-7.116c1.523-1.257,3.118-2.551,4.93-3.961
		c0.452-0.334,0.918-0.738,1.345-1.012l1.129-0.396c0.742-0.246,1.522-0.51,2.212-0.692c4.699,8.578,7.912,15.553,10.754,22.449
		c1.404,3.433,2.714,6.817,3.967,10.22c1.254,3.383,2.441,6.857,3.515,10.652c2.169,7.487,3.895,16.023,5.273,24.723
		c0.705,4.266,1.3,8.781,1.988,12.686c0.634,3.903,1.261,7.763,1.877,11.589c0.561,3.62,1.119,7.21,1.674,10.776l0.391,2.576
		c0.118,0.817,0.279,1.806,0.325,2.312c0.144,1.219,0.285,2.438,0.426,3.652c0.282,2.433,0.564,4.86,0.847,7.283l1.018,7.231
		c0.709,4.837,1.418,9.692,2.143,14.62c0.778,4.922,1.435,9.981,2.468,15.068c2.603,7.295,5.267,14.77,7.991,22.406
		c1.306,3.836,2.841,7.639,4.324,11.505c1.49,3.859,2.996,7.758,4.516,11.692c1.513,3.928,3.039,7.892,4.581,11.889
		c1.529,3.931,3.275,7.797,5.073,11.794c1.785,3.983,3.609,8.072,5.185,12.388c1.556,4.314,2.832,8.883,3.433,13.657
		c0.381,2.651,0.42,5.353,0.361,8.004l-0.158,7.39l-5.552-4.991c-13.034-11.718-25.399-23.371-38.342-33.18
		c-3.281-2.382-6.444-4.883-9.792-7.016c-1.653-1.103-3.294-2.205-4.932-3.301c-1.691-1.011-3.377-2.015-5.051-3.02
		c-3.314-2.027-6.733-3.918-10.094-5.795c-3.363-1.89-6.684-3.754-9.963-5.595c-26.415-14.39-51.089-25.678-71.727-35.296
		c-20.664-9.563-37.357-17.362-48.691-23.151C72.867,203.418,66.819,199.79,67.204,198.916z"/>
	<path fill="#FFCD33" d="M242.427,260.92c-0.667,0.239-2.855-3.353-6.12-10.383c-3.131-7.107-7.495-17.589-12.592-30.977
		c-2.411-6.73-5.037-14.18-7.846-22.278c-0.702-2.024-1.418-4.09-2.143-6.194c-0.712-2.108-1.362-4.273-2.062-6.464
		c-0.344-1.098-0.692-2.205-1.04-3.323l-0.528-1.683l-0.266-0.845l-0.056-0.18l-0.01-0.01l-0.017-0.023l-0.263-0.321
		c-0.699-0.802-0.948-0.726-1.171-0.305l-0.057,0.131c-0.134,0.457-0.075,0.854-0.065,0.871c0.01,0.092,0.017-0.149-0.203,0.013
		c-2.091-0.939-3.442-5.082-4.02-10.928c-0.624-5.826-0.545-13.234-0.525-20.542c0.017-7.308,0.056-14.47-0.695-19.853
		c-0.749-5.387-2.298-8.988-5.048-9.138c-0.17-0.008-0.348-0.005-0.531,0.012l-0.275,0.038c-0.089,0.045-0.174,0.112-0.263,0.171
		c-0.357,0.243-0.735,0.518-1.142,0.832c-0.788,0.643-1.795,1.351-2.708,2.418c-1.906,2.074-4.21,4.952-6.973,8.719
		c-1.293,2.005-2.596,4.391-4.056,7.002c-1.424,2.655-3.068,5.482-4.62,8.817c-1.48,3.411-3.055,7.161-4.729,11.262
		c-0.827,2.053-1.723,4.186-2.566,6.425c-0.397,1.139-0.797,2.287-1.205,3.447c-0.4,1.152-0.85,2.496-1.142,3.217
		c-5.392,13.906-10.337,30.177-15.544,48.14c-1.29,4.443-2.609,9.012-3.968,13.694c-0.676,2.346-1.355,4.722-2.047,7.124
		c-0.368,1.336-0.738,2.678-1.112,4.029c-0.341,1.307-0.686,2.626-1.031,3.948c-2.655,10.35-5.126,20.411-8.279,30.16
		c1.385-5.743,2.566-11.61,3.669-17.521c1.122-5.945,2.12-11.833,3.399-18.235c2.442-11.57,4.752-22.491,6.931-32.821
		c1.162-5.224,2.284-10.301,3.377-15.228c1.208-4.971,2.379-9.797,3.521-14.48c0.584-2.338,1.257-4.673,1.877-6.95
		c0.748-2.72,1.483-5.4,2.212-8.04c0.505-1.793,0.925-3.585,1.496-5.319c0.558-1.731,1.109-3.447,1.657-5.15
		c1.089-3.359,2.163-6.665,3.219-9.922c0.525-1.605,1.044-3.196,1.559-4.776c0.522-1.564,0.994-3.163,1.624-4.524
		c1.175-2.794,2.33-5.544,3.472-8.25c1.123-2.648,2.225-5.254,3.314-7.818c0.548-1.242,1.05-2.569,1.621-3.693
		c0.594-1.047,1.184-2.087,1.768-3.119c2.287-4.01,4.506-7.89,6.645-11.647c0.997-1.944,2.205-3.332,3.258-4.625
		c1.073-1.324,2.091-2.45,3.075-3.491c3.947-4.046,7.199-7.441,10.757-10.739c1.785-1.638,3.643-3.228,5.696-4.742
		c0.516-0.379,1.015-0.751,1.582-1.119l0.817-0.543c0.131-0.067,0.278-0.23,0.396-0.218l0.325,0.157
		c0.85,0.433,1.729,0.873,2.484,1.423c4.666,10.008,7.059,18.455,8.798,26.532c1.696,8.028,2.608,15.494,3.016,22.526
		c0.42,6.983,0.275,13.426,0.098,18.688c-0.216,5.301-0.485,9.643-0.866,13.361c-2.073,0.423-3.563,1.7-4.633,3.322
		c-1.063,1.633-1.703,3.595-1.956,5.713c-0.151,2.202-0.121,4.379,0.065,6.566c0.056,0.532,0.111,1.08,0.171,1.646l0.053,0.414
		c0.029,0.175,0.006,0.172,0.104,0.576c0.145,0.638,0.289,1.286,0.439,1.943c0.605,2.625,1.283,5.386,2.028,8.268
		c3.189,11.479,6.084,21.868,8.62,30.998c2.636,9.109,4.998,16.938,6.757,23.396c1.772,6.462,3.046,11.521,3.908,14.928
		C242.679,258.865,242.883,260.749,242.427,260.92z"/>
</g>
</svg>
